REM DIRINDEX 1\2\4\8,1\2\4\9,1\2\4\10,1\2\5\11,1\2\5\12,1\2\5\13,1\2\5\14,1\2\5\15,1\3\6\16,1\3\6\17,1\3\6\18,1\3\7\19,1\3\7\20,1\3\7\21,1\3\7\22,1\3\7\23
REM DIRNAME "folder01","folder02","folder03","folder04","folder05","folder06","folder07","folder08","folder09","folder10","folder11","folder12","folder13","folder14","folder15","folder16","folder17","folder18","folder19","folder20","folder21","folder22","folder23"
TITLE ""
FILE "LR_black_phrase_E_A07.mp3" MP3
  TRACK 01 AUDIO
    TITLE "0:"
    INDEX 01 00:00:00
  TRACK 02 AUDIO
    TITLE "16:cjc171_08541"
    INDEX 01 00:00:14
  TRACK 03 AUDIO
    TITLE "0:"
    INDEX 01 00:01:45
  TRACK 04 AUDIO
    TITLE "17:cjc171_08542"
    INDEX 01 00:01:74
  TRACK 05 AUDIO
    TITLE "0:"
    INDEX 01 00:04:24
  TRACK 06 AUDIO
    TITLE "18:cjc171_08543"
    INDEX 01 00:05:02
  TRACK 07 AUDIO
    TITLE "0:"
    INDEX 01 00:07:26
  TRACK 08 AUDIO
    TITLE "16:cjc171_08544"
    INDEX 01 00:08:29
  TRACK 09 AUDIO
    TITLE "0:"
    INDEX 01 00:09:56
  TRACK 10 AUDIO
    TITLE "17:cjc171_08545"
    INDEX 01 00:10:11
  TRACK 11 AUDIO
    TITLE "0:"
    INDEX 01 00:12:53
  TRACK 12 AUDIO
    TITLE "18:cjc171_08546"
    INDEX 01 00:13:33
  TRACK 13 AUDIO
    TITLE "0:"
    INDEX 01 00:15:75
  TRACK 14 AUDIO
    TITLE "16:cjc171_08547"
    INDEX 01 00:17:05
  TRACK 15 AUDIO
    TITLE "0:"
    INDEX 01 00:18:47
  TRACK 16 AUDIO
    TITLE "17:cjc171_08548"
    INDEX 01 00:19:02
  TRACK 17 AUDIO
    TITLE "0:"
    INDEX 01 00:21:18
  TRACK 18 AUDIO
    TITLE "18:cjc171_08549"
    INDEX 01 00:21:71
  TRACK 19 AUDIO
    TITLE "0:"
    INDEX 01 00:24:13
  TRACK 20 AUDIO
    TITLE "16:cjc171_08550"
    INDEX 01 00:25:12
  TRACK 21 AUDIO
    TITLE "0:"
    INDEX 01 00:26:33
  TRACK 22 AUDIO
    TITLE "17:cjc171_08551"
    INDEX 01 00:26:53
  TRACK 23 AUDIO
    TITLE "0:"
    INDEX 01 00:29:30
  TRACK 24 AUDIO
    TITLE "18:cjc171_08552"
    INDEX 01 00:29:75
  TRACK 25 AUDIO
    TITLE "0:"
    INDEX 01 00:32:51
  TRACK 26 AUDIO
    TITLE "16:cjc171_08553"
    INDEX 01 00:33:51
  TRACK 27 AUDIO
    TITLE "0:"
    INDEX 01 00:34:62
  TRACK 28 AUDIO
    TITLE "17:cjc171_08554"
    INDEX 01 00:35:07
  TRACK 29 AUDIO
    TITLE "0:"
    INDEX 01 00:37:58
  TRACK 30 AUDIO
    TITLE "18:cjc171_08555"
    INDEX 01 00:38:27
  TRACK 31 AUDIO
    TITLE "0:"
    INDEX 01 00:41:03
  TRACK 32 AUDIO
    TITLE "16:cjc171_08556"
    INDEX 01 00:41:74
  TRACK 33 AUDIO
    TITLE "0:"
    INDEX 01 00:43:32
  TRACK 34 AUDIO
    TITLE "17:cjc171_08557"
    INDEX 01 00:43:51
  TRACK 35 AUDIO
    TITLE "0:"
    INDEX 01 00:46:10
  TRACK 36 AUDIO
    TITLE "18:cjc171_08558"
    INDEX 01 00:46:57
  TRACK 37 AUDIO
    TITLE "0:"
    INDEX 01 00:49:17
  TRACK 38 AUDIO
    TITLE "16:cjc171_08559"
    INDEX 01 00:50:14
  TRACK 39 AUDIO
    TITLE "0:"
    INDEX 01 00:51:21
  TRACK 40 AUDIO
    TITLE "17:cjc171_08560"
    INDEX 01 00:51:49
  TRACK 41 AUDIO
    TITLE "0:"
    INDEX 01 00:53:50
  TRACK 42 AUDIO
    TITLE "18:cjc171_08561"
    INDEX 01 00:54:28
  TRACK 43 AUDIO
    TITLE "0:"
    INDEX 01 00:56:28
  TRACK 44 AUDIO
    TITLE "16:cjc171_08562"
    INDEX 01 00:57:30
  TRACK 45 AUDIO
    TITLE "0:"
    INDEX 01 00:58:57
  TRACK 46 AUDIO
    TITLE "17:cjc171_08563"
    INDEX 01 00:59:09
  TRACK 47 AUDIO
    TITLE "0:"
    INDEX 01 01:01:16
  TRACK 48 AUDIO
    TITLE "18:cjc171_08564"
    INDEX 01 01:01:69
  TRACK 49 AUDIO
    TITLE "0:"
    INDEX 01 01:04:01
  TRACK 50 AUDIO
    TITLE "16:cjc171_08565"
    INDEX 01 01:05:04
  TRACK 51 AUDIO
    TITLE "0:"
    INDEX 01 01:06:35
  TRACK 52 AUDIO
    TITLE "17:cjc171_08566"
    INDEX 01 01:06:66
  TRACK 53 AUDIO
    TITLE "0:"
    INDEX 01 01:08:67
  TRACK 54 AUDIO
    TITLE "18:cjc171_08567"
    INDEX 01 01:09:45
  TRACK 55 AUDIO
    TITLE "0:"
    INDEX 01 01:11:46
  TRACK 56 AUDIO
    TITLE "16:cjc171_08568"
    INDEX 01 01:12:43
  TRACK 57 AUDIO
    TITLE "0:"
    INDEX 01 01:13:54
  TRACK 58 AUDIO
    TITLE "17:cjc171_08569"
    INDEX 01 01:14:09
  TRACK 59 AUDIO
    TITLE "0:"
    INDEX 01 01:16:43
  TRACK 60 AUDIO
    TITLE "18:cjc171_08570"
    INDEX 01 01:17:15
  TRACK 61 AUDIO
    TITLE "0:"
    INDEX 01 01:19:51
  TRACK 62 AUDIO
    TITLE "16:cjc171_08571"
    INDEX 01 01:20:49
  TRACK 63 AUDIO
    TITLE "0:"
    INDEX 01 01:21:64
  TRACK 64 AUDIO
    TITLE "17:cjc171_08572"
    INDEX 01 01:22:10
  TRACK 65 AUDIO
    TITLE "0:"
    INDEX 01 01:23:66
  TRACK 66 AUDIO
    TITLE "18:cjc171_08573"
    INDEX 01 01:24:37
  TRACK 67 AUDIO
    TITLE "0:"
    INDEX 01 01:26:20
  TRACK 68 AUDIO
    TITLE "16:cjc171_08574"
    INDEX 01 01:27:11
  TRACK 69 AUDIO
    TITLE "0:"
    INDEX 01 01:28:36
  TRACK 70 AUDIO
    TITLE "17:cjc171_08575"
    INDEX 01 01:28:58
  TRACK 71 AUDIO
    TITLE "0:"
    INDEX 01 01:31:03
  TRACK 72 AUDIO
    TITLE "18:cjc171_08576"
    INDEX 01 01:31:46
  TRACK 73 AUDIO
    TITLE "0:"
    INDEX 01 01:33:67
  TRACK 74 AUDIO
    TITLE "16:cjc171_08577"
    INDEX 01 01:34:68
  TRACK 75 AUDIO
    TITLE "0:"
    INDEX 01 01:36:24
  TRACK 76 AUDIO
    TITLE "17:cjc171_08578"
    INDEX 01 01:36:36
  TRACK 77 AUDIO
    TITLE "0:"
    INDEX 01 01:38:09
  TRACK 78 AUDIO
    TITLE "18:cjc171_08579"
    INDEX 01 01:38:54
  TRACK 79 AUDIO
    TITLE "0:"
    INDEX 01 01:40:26
  TRACK 80 AUDIO
    TITLE "16:cjc171_08580"
    INDEX 01 01:41:31
  TRACK 81 AUDIO
    TITLE "0:"
    INDEX 01 01:42:60
  TRACK 82 AUDIO
    TITLE "17:cjc171_08581"
    INDEX 01 01:43:16
  TRACK 83 AUDIO
    TITLE "0:"
    INDEX 01 01:45:43
  TRACK 84 AUDIO
    TITLE "18:cjc171_08582"
    INDEX 01 01:46:22
  TRACK 85 AUDIO
    TITLE "0:"
    INDEX 01 01:48:49
  TRACK 86 AUDIO
    TITLE "16:cjc171_08583"
    INDEX 01 01:49:54
  TRACK 87 AUDIO
    TITLE "0:"
    INDEX 01 01:50:73
  TRACK 88 AUDIO
    TITLE "17:cjc171_08584"
    INDEX 01 01:51:27
  TRACK 89 AUDIO
    TITLE "0:"
    INDEX 01 01:53:44
  TRACK 90 AUDIO
    TITLE "18:cjc171_08585"
    INDEX 01 01:54:26
  TRACK 91 AUDIO
    TITLE "0:"
    INDEX 01 01:56:42
  TRACK 92 AUDIO
    TITLE "16:cjc171_08586"
    INDEX 01 01:57:42
  TRACK 93 AUDIO
    TITLE "0:"
    INDEX 01 01:58:61
  TRACK 94 AUDIO
    TITLE "17:cjc171_08587"
    INDEX 01 01:59:09
  TRACK 95 AUDIO
    TITLE "0:"
    INDEX 01 02:01:16
  TRACK 96 AUDIO
    TITLE "18:cjc171_08588"
    INDEX 01 02:01:63
  TRACK 97 AUDIO
    TITLE "0:"
    INDEX 01 02:03:70
  TRACK 98 AUDIO
    TITLE "16:cjc171_08589"
    INDEX 01 02:04:67
  TRACK 99 AUDIO
    TITLE "0:"
    INDEX 01 02:06:13
  TRACK 100 AUDIO
    TITLE "17:cjc171_08590"
    INDEX 01 02:06:35
  TRACK 101 AUDIO
    TITLE "0:"
    INDEX 01 02:09:12
  TRACK 102 AUDIO
    TITLE "18:cjc171_08591"
    INDEX 01 02:09:57
  TRACK 103 AUDIO
    TITLE "0:"
    INDEX 01 02:12:34
  TRACK 104 AUDIO
    TITLE "16:cjc171_08592"
    INDEX 01 02:13:29
  TRACK 105 AUDIO
    TITLE "0:"
    INDEX 01 02:14:52
  TRACK 106 AUDIO
    TITLE "17:cjc171_08593"
    INDEX 01 02:14:72
  TRACK 107 AUDIO
    TITLE "0:"
    INDEX 01 02:17:27
  TRACK 108 AUDIO
    TITLE "18:cjc171_08594"
    INDEX 01 02:18:03
  TRACK 109 AUDIO
    TITLE "0:"
    INDEX 01 02:20:33
  TRACK 110 AUDIO
    TITLE "16:cjc171_08595"
    INDEX 01 02:21:38
  TRACK 111 AUDIO
    TITLE "0:"
    INDEX 01 02:22:55
  TRACK 112 AUDIO
    TITLE "17:cjc171_08596"
    INDEX 01 02:23:10
  TRACK 113 AUDIO
    TITLE "0:"
    INDEX 01 02:25:58
  TRACK 114 AUDIO
    TITLE "18:cjc171_08597"
    INDEX 01 02:26:38
  TRACK 115 AUDIO
    TITLE "0:"
    INDEX 01 02:29:10
  TRACK 116 AUDIO
    TITLE "16:cjc171_08598"
    INDEX 01 02:30:14
  TRACK 117 AUDIO
    TITLE "0:"
    INDEX 01 02:31:21
  TRACK 118 AUDIO
    TITLE "17:cjc171_08599"
    INDEX 01 02:31:52
  TRACK 119 AUDIO
    TITLE "0:"
    INDEX 01 02:33:45
  TRACK 120 AUDIO
    TITLE "18:cjc171_08600"
    INDEX 01 02:34:27
  TRACK 121 AUDIO
    TITLE "0:"
    INDEX 01 02:36:22
  TRACK 122 AUDIO
    TITLE "16:cjc171_08601"
    INDEX 01 02:37:28
  TRACK 123 AUDIO
    TITLE "0:"
    INDEX 01 02:38:58
  TRACK 124 AUDIO
    TITLE "17:cjc171_08602"
    INDEX 01 02:39:13
  TRACK 125 AUDIO
    TITLE "0:"
    INDEX 01 02:41:06
  TRACK 126 AUDIO
    TITLE "18:cjc171_08603"
    INDEX 01 02:41:61
  TRACK 127 AUDIO
    TITLE "0:"
    INDEX 01 02:43:54
  TRACK 128 AUDIO
    TITLE "16:cjc171_08604"
    INDEX 01 02:44:57
  TRACK 129 AUDIO
    TITLE "0:"
    INDEX 01 02:46:13
  TRACK 130 AUDIO
    TITLE "17:cjc171_08605"
    INDEX 01 02:46:32
  TRACK 131 AUDIO
    TITLE "0:"
    INDEX 01 02:48:41
  TRACK 132 AUDIO
    TITLE "18:cjc171_08606"
    INDEX 01 02:49:13
  TRACK 133 AUDIO
    TITLE "0:"
    INDEX 01 02:51:18
  TRACK 134 AUDIO
    TITLE "16:cjc171_08607"
    INDEX 01 02:52:12
  TRACK 135 AUDIO
    TITLE "0:"
    INDEX 01 02:53:34
  TRACK 136 AUDIO
    TITLE "17:cjc171_08608"
    INDEX 01 02:53:60
  TRACK 137 AUDIO
    TITLE "0:"
    INDEX 01 02:55:73
  TRACK 138 AUDIO
    TITLE "18:cjc171_08609"
    INDEX 01 02:56:43
  TRACK 139 AUDIO
    TITLE "0:"
    INDEX 01 02:58:55
  TRACK 140 AUDIO
    TITLE "16:cjc171_08610"
    INDEX 01 02:59:51
  TRACK 141 AUDIO
    TITLE "0:"
    INDEX 01 03:01:09
  TRACK 142 AUDIO
    TITLE "17:cjc171_08611"
    INDEX 01 03:01:34
  TRACK 143 AUDIO
    TITLE "0:"
    INDEX 01 03:03:70
  TRACK 144 AUDIO
    TITLE "18:cjc171_08612"
    INDEX 01 03:04:46
  TRACK 145 AUDIO
    TITLE "0:"
    INDEX 01 03:07:03
  TRACK 146 AUDIO
    TITLE "16:cjc171_08613"
    INDEX 01 03:08:12
  TRACK 147 AUDIO
    TITLE "0:"
    INDEX 01 03:09:30
  TRACK 148 AUDIO
    TITLE "17:cjc171_08614"
    INDEX 01 03:09:59
  TRACK 149 AUDIO
    TITLE "0:"
    INDEX 01 03:12:06
  TRACK 150 AUDIO
    TITLE "18:cjc171_08615"
    INDEX 01 03:12:63
  TRACK 151 AUDIO
    TITLE "0:"
    INDEX 01 03:15:09
  TRACK 152 AUDIO
    TITLE "16:cjc171_08616"
    INDEX 01 03:16:16
  TRACK 153 AUDIO
    TITLE "0:"
    INDEX 01 03:17:41
  TRACK 154 AUDIO
    TITLE "17:cjc171_08617"
    INDEX 01 03:17:70
  TRACK 155 AUDIO
    TITLE "0:"
    INDEX 01 03:20:33
  TRACK 156 AUDIO
    TITLE "18:cjc171_08618"
    INDEX 01 03:21:15
  TRACK 157 AUDIO
    TITLE "0:"
    INDEX 01 03:23:53
  TRACK 158 AUDIO
    TITLE "16:cjc171_08619"
    INDEX 01 03:24:61
  TRACK 159 AUDIO
    TITLE "0:"
    INDEX 01 03:26:10
  TRACK 160 AUDIO
    TITLE "17:cjc171_08620"
    INDEX 01 03:26:40
  TRACK 161 AUDIO
    TITLE "0:"
    INDEX 01 03:29:13
  TRACK 162 AUDIO
    TITLE "18:cjc171_08621"
    INDEX 01 03:29:68
  TRACK 163 AUDIO
    TITLE "0:"
    INDEX 01 03:32:40
  TRACK 164 AUDIO
    TITLE "16:cjc171_08622"
    INDEX 01 03:33:40
  TRACK 165 AUDIO
    TITLE "0:"
    INDEX 01 03:34:57
  TRACK 166 AUDIO
    TITLE "17:cjc171_08623"
    INDEX 01 03:35:03
  TRACK 167 AUDIO
    TITLE "0:"
    INDEX 01 03:37:57
  TRACK 168 AUDIO
    TITLE "18:cjc171_08624"
    INDEX 01 03:38:25
  TRACK 169 AUDIO
    TITLE "0:"
    INDEX 01 03:41:06
  TRACK 170 AUDIO
    TITLE "16:cjc171_08625"
    INDEX 01 03:41:73
  TRACK 171 AUDIO
    TITLE "0:"
    INDEX 01 03:43:17
  TRACK 172 AUDIO
    TITLE "17:cjc171_08626"
    INDEX 01 03:43:36
  TRACK 173 AUDIO
    TITLE "0:"
    INDEX 01 03:46:13
  TRACK 174 AUDIO
    TITLE "18:cjc171_08627"
    INDEX 01 03:46:62
  TRACK 175 AUDIO
    TITLE "0:"
    INDEX 01 03:49:39
  TRACK 176 AUDIO
    TITLE "16:cjc171_08628"
    INDEX 01 03:50:38
  TRACK 177 AUDIO
    TITLE "0:"
    INDEX 01 03:51:53
  TRACK 178 AUDIO
    TITLE "17:cjc171_08629"
    INDEX 01 03:51:75
  TRACK 179 AUDIO
    TITLE "0:"
    INDEX 01 03:54:36
  TRACK 180 AUDIO
    TITLE "18:cjc171_08630"
    INDEX 01 03:55:10
  TRACK 181 AUDIO
    TITLE "0:"
    INDEX 01 03:57:46
